<svg xmlns="http://www.w3.org/2000/svg" height="20" viewBox="0 -960 960 960" width="20"><path d="M480-288q80 0 136-56t56-136q0-80-56-136t-136-56q-80 0-136 56t-56 136q0 80 56 136t136 56Zm-.118-94Q439-382 410.5-410.618q-28.5-28.617-28.5-69.5Q382-521 410.618-549.5q28.617-28.5 69.5-28.5Q521-578 549.5-549.382q28.5 28.617 28.5 69.5Q578-439 549.382-410.5q-28.617 28.5-69.5 28.5ZM480-162q-156.596 0-283.798-87T12-480q57-144 184.202-231T480-798q156.596 0 283.798 87T948-480q-57 144-184.202 231T480-162Z"/></svg>